<mxfile host="www.draw.io" modified="2020-02-24T13:32:53.241Z" agent="Mozilla/5.0 (X11; Fedora; Linux x86_64; rv:73.0) Gecko/20100101 Firefox/73.0" etag="pWHahctwoPc20KA0dJHT" version="12.7.4" type="github">
  <diagram id="y7Y5LSELg2NZ22rHmxrC" name="Page-1">
    <mxGraphModel dx="824" dy="461" grid="1" gridSize="10" guides="1" tooltips="1" connect="1" arrows="1" fold="1" page="1" pageScale="1" pageWidth="850" pageHeight="1100" math="0" shadow="0">
      <root>
        <mxCell id="0" />
        <mxCell id="1" parent="0" />
        <mxCell id="RdjZfKGLbrOmODSjrDLa-1" value="use cases &lt;b&gt;Проектирование системы интернет-заказов магазина электроники&lt;/b&gt;" style="shape=umlFrame;whiteSpace=wrap;html=1;width=470;height=30;" vertex="1" parent="1">
          <mxGeometry x="40" y="40" width="700" height="200" as="geometry" />
        </mxCell>
      </root>
    </mxGraphModel>
  </diagram>
</mxfile>
